<?xml version="1.0" ?><!DOCTYPE svg  PUBLIC '-//W3C//DTD SVG 1.1//EN'  'http://www.w3.org/Graphics/SVG/1.1/DTD/svg11.dtd'><svg enable-background="new 0 0 130 130" id="Layer_1" version="1.1" viewBox="0 0 130 130" xml:space="preserve" xmlns="http://www.w3.org/2000/svg" xmlns:xlink="http://www.w3.org/1999/xlink"><g><circle cx="65" cy="65" fill="#90DFAA" r="64"/><path d="M92.6,45.2c-0.1,0-0.2,0-0.2,0v0H37.4c-10.3,0-18.6,10.2-18.6,20.6c0,10.5,8.3,18.9,18.6,18.9   s23.1-8.5,23.1-18.9c0-1.2-0.2-2.4-0.5-3.6c2.2-1.4,5.7-2.6,10.1-0.4c-0.4,1.3-0.6,2.7-0.6,4c0,10.5,12.8,18.9,23.1,18.9   c10.3,0,18.6-8.5,18.6-18.9C111.2,55.4,102.9,45.2,92.6,45.2z M72.1,57.5c-5.6-2.8-10.5-1.8-14,0.3c-1.6-2.6-3.8-5-6.3-7h26.5   C75.8,52.7,73.6,55,72.1,57.5z" fill="#324A5E"/><path d="M92.6,79c-7.6,0-17.3-6.4-17.3-13.2c0-7.2,10.2-14.9,17.3-14.9c6.7,0,12.9,7.1,12.9,14.9   C105.5,73.1,99.7,79,92.6,79z" fill="#84DBFF"/><path d="M37.4,79c-7.1,0-12.9-5.9-12.9-13.2c0-7.8,6.1-14.9,12.9-14.9c7.2,0,17.3,7.7,17.3,14.9   C54.8,72.6,45,79,37.4,79z" fill="#84DBFF"/></g></svg>