<?xml version="1.0" ?><!DOCTYPE svg  PUBLIC '-//W3C//DTD SVG 1.1//EN'  'http://www.w3.org/Graphics/SVG/1.1/DTD/svg11.dtd'><svg enable-background="new 0 0 130 130" id="Layer_1" version="1.1" viewBox="0 0 130 130" xml:space="preserve" xmlns="http://www.w3.org/2000/svg" xmlns:xlink="http://www.w3.org/1999/xlink"><g><circle cx="65" cy="65" fill="#90DFAA" r="64"/><g><path d="M97.2,76H32.8c-2.1,0-3.8,1.7-3.8,3.8v12c0,2.1,1.7,3.8,3.8,3.8h64.4c2.1,0,3.8-1.7,3.8-3.8v-12    C101,77.8,99.3,76,97.2,76z" fill="#324A5E"/><path d="M71.1,35.7c1.2-1.4,1.9-3.2,1.9-5.3c0-4.5-3.6-8.1-8.1-8.1s-8.1,3.6-8.1,8.1c0,2,0.7,3.8,1.9,5.3    C44.5,40.4,33.6,60.8,33.6,76h62.9C96.4,60.8,85.5,40.4,71.1,35.7z" fill="#FF7058"/></g></g></svg>