<?xml version="1.0" ?><!DOCTYPE svg  PUBLIC '-//W3C//DTD SVG 1.1//EN'  'http://www.w3.org/Graphics/SVG/1.1/DTD/svg11.dtd'><svg enable-background="new 0 0 130 130" id="Layer_1" version="1.1" viewBox="0 0 130 130" xml:space="preserve" xmlns="http://www.w3.org/2000/svg" xmlns:xlink="http://www.w3.org/1999/xlink"><g><circle cx="65" cy="65" fill="#FD8469" r="64"/><g><g><path d="M58.3,108.5c-5.1,0-9.2-4.1-9.2-9.2v-2.5c0-1.4,1.1-2.5,2.5-2.5c1.4,0,2.5,1.1,2.5,2.5v2.5     c0,2.3,1.9,4.2,4.2,4.2c2.3,0,4.2-1.9,4.2-4.2V22c0-1.4,1.1-2.5,2.5-2.5c1.4,0,2.5,1.1,2.5,2.5v77.2     C67.5,104.3,63.4,108.5,58.3,108.5z" fill="#324A5E"/></g><path d="M34.9,60.1c2.4-2.8,6-4.6,10-4.6c4,0,7.6,1.8,10,4.6c2.4-2.8,6-4.6,10-4.6s7.6,1.8,10,4.6    c2.4-2.8,6-4.6,10-4.6s7.6,1.8,10,4.6c2.4-2.8,6-4.6,10-4.6c1.5,0,2.9,0.2,4.2,0.7C103.4,37.3,85.8,23.6,65,23.6    S26.6,37.3,20.7,56.1c1.3-0.4,2.7-0.7,4.2-0.7C28.9,55.5,32.5,57.3,34.9,60.1z" fill="#4CDBC4"/></g><path d="M36.3,52.1h0.5c-0.1-0.1-0.2-0.2-0.2-0.3C36.5,51.9,36.4,52,36.3,52.1z" fill="#E6E9EE"/><path d="M54.7,52.1h0.5c-0.1-0.1-0.2-0.2-0.2-0.3C54.8,51.9,54.7,52,54.7,52.1z" fill="#E6E9EE"/><path d="M73,52.1h0.5c-0.1-0.1-0.2-0.2-0.2-0.3C73.2,51.9,73.1,52,73,52.1z" fill="#E6E9EE"/><path d="M91.4,52.1h0.5c-0.1-0.1-0.2-0.2-0.2-0.3C91.5,51.9,91.5,52,91.4,52.1z" fill="#E6E9EE"/></g></svg>