<?xml version="1.0" ?><!DOCTYPE svg  PUBLIC '-//W3C//DTD SVG 1.1//EN'  'http://www.w3.org/Graphics/SVG/1.1/DTD/svg11.dtd'><svg enable-background="new 0 0 130 130" id="Layer_1" version="1.1" viewBox="0 0 130 130" xml:space="preserve" xmlns="http://www.w3.org/2000/svg" xmlns:xlink="http://www.w3.org/1999/xlink"><g><circle cx="65" cy="65" fill="#FD8469" r="64"/><path d="M85.1,36.5H44.9c-2.1,0-3.8,1.7-3.8,3.8v61.2c0,2.1,1.7,3.8,3.8,3.8h40.3c2.1,0,3.8-1.7,3.8-3.8V40.3   C89,38.2,87.2,36.5,85.1,36.5z" fill="#4CDBC4"/><rect fill="#324A5E" height="13.9" width="17.7" x="56.1" y="22.6"/><circle cx="65" cy="70.9" fill="#FFFFFF" r="16.7"/><g><g><path d="M55.6,69.3v-1.5c0.3,0.2,0.6,0.4,0.9,0.5c0.3,0.1,0.6,0.2,1,0.2c0.2,0,0.4,0,0.5-0.1     c0.1,0,0.3-0.1,0.4-0.1c0.1-0.1,0.2-0.1,0.2-0.2c0-0.1,0.1-0.2,0.1-0.3c0-0.1,0-0.2-0.1-0.4c-0.1-0.1-0.2-0.2-0.3-0.3     c-0.1-0.1-0.3-0.2-0.5-0.3c-0.2-0.1-0.4-0.2-0.6-0.2c-0.5-0.2-0.9-0.5-1.2-0.8c-0.3-0.3-0.4-0.7-0.4-1.1c0-0.4,0.1-0.7,0.2-0.9     c0.1-0.3,0.3-0.5,0.6-0.6c0.2-0.2,0.5-0.3,0.8-0.4c0.3-0.1,0.7-0.1,1-0.1c0.4,0,0.7,0,0.9,0.1c0.3,0,0.5,0.1,0.7,0.2v1.4     c-0.1-0.1-0.2-0.1-0.4-0.2c-0.1-0.1-0.3-0.1-0.4-0.1S58.9,64,58.7,64c-0.1,0-0.3,0-0.4,0c-0.2,0-0.3,0-0.5,0     c-0.1,0-0.3,0.1-0.4,0.1c-0.1,0.1-0.2,0.1-0.2,0.2c-0.1,0.1-0.1,0.2-0.1,0.3c0,0.1,0,0.2,0.1,0.3c0.1,0.1,0.1,0.2,0.3,0.3     c0.1,0.1,0.2,0.2,0.4,0.2c0.2,0.1,0.3,0.2,0.5,0.2c0.3,0.1,0.5,0.2,0.7,0.4c0.2,0.1,0.4,0.3,0.6,0.4s0.3,0.3,0.4,0.5     c0.1,0.2,0.1,0.4,0.1,0.7c0,0.4-0.1,0.7-0.2,0.9c-0.1,0.3-0.3,0.5-0.6,0.6c-0.2,0.2-0.5,0.3-0.9,0.3c-0.3,0.1-0.7,0.1-1,0.1     c-0.4,0-0.7,0-1.1-0.1C56.2,69.5,55.9,69.5,55.6,69.3z" fill="#324A5E"/><path d="M66.8,66.7c0,2-0.9,3-2.8,3c-1.8,0-2.7-1-2.7-3v-3.9h1.5v3.9c0,1.1,0.4,1.6,1.3,1.6     c0.8,0,1.3-0.5,1.3-1.6v-4h1.5V66.7z" fill="#324A5E"/><path d="M74.4,69.6h-1.5l-2.8-4.2c-0.2-0.2-0.3-0.4-0.3-0.6h0c0,0.2,0,0.6,0,1.1v3.7h-1.4v-6.7H70l2.7,4.1     c0.1,0.2,0.2,0.4,0.3,0.5h0c0-0.2,0-0.5,0-0.9v-3.7h1.4V69.6z" fill="#324A5E"/></g><g><path d="M60.9,79.2c-1,0-1.8-0.3-2.4-0.9c-0.6-0.6-0.9-1.4-0.9-2.5c0-1.1,0.3-1.9,0.9-2.6c0.6-0.7,1.4-1,2.5-1     c1,0,1.7,0.3,2.3,0.9c0.6,0.6,0.9,1.5,0.9,2.5c0,1.1-0.3,1.9-0.9,2.6S61.9,79.2,60.9,79.2z M60.9,73.5c-0.5,0-1,0.2-1.3,0.6     c-0.3,0.4-0.5,0.9-0.5,1.6c0,0.7,0.2,1.2,0.5,1.6c0.3,0.4,0.7,0.6,1.2,0.6c0.5,0,0.9-0.2,1.2-0.6c0.3-0.4,0.5-0.9,0.5-1.6     c0-0.7-0.1-1.2-0.4-1.6C61.9,73.7,61.5,73.5,60.9,73.5z" fill="#324A5E"/><path d="M67.4,72.3v1.2h-0.6v4.4h0.6V79h-2.6v-1.2h0.6v-4.4h-0.6v-1.2H67.4z" fill="#324A5E"/><path d="M72.4,79h-4v-6.7h1.5v5.5h2.5V79z" fill="#324A5E"/></g></g></g></svg>