<?xml version="1.0" ?><!DOCTYPE svg  PUBLIC '-//W3C//DTD SVG 1.1//EN'  'http://www.w3.org/Graphics/SVG/1.1/DTD/svg11.dtd'><svg enable-background="new 0 0 130 130" id="Layer_1" version="1.1" viewBox="0 0 130 130" xml:space="preserve" xmlns="http://www.w3.org/2000/svg" xmlns:xlink="http://www.w3.org/1999/xlink"><g><circle cx="65" cy="65" fill="#90DFAA" r="64"/><g><path d="M85.2,49.1c7.3,3.1,11.9,22.6,11.9,22.6h13.1c-3.4-23.5-14.3-36-20.9-41.5c-2.8-2.4-6.4-3.7-10.1-3.7h-7.5    H58.4H51c-3.7,0-7.3,1.3-10.1,3.7c-6.6,5.6-17.5,18-20.9,41.5H33c0,0,4.5-19.5,11.9-22.6c7.3-3.1-5.6,53-5.6,53h19.2h13.2h19.2    C90.8,102.1,77.8,46,85.2,49.1z" fill="#FF7058"/><rect fill="#F9B54C" height="8.6" width="23.4" x="53.3" y="19.9"/><path d="M76.6,19.9L67,28.7c-2,1.8-2.6,4.8-1.4,7.2l0,0c1.9,3.7,6.9,6.4,9.8,3.4l5-7.1c2.3-2.4,2.3-6.1-0.1-8.5    L76.6,19.9z" fill="#FFD05B"/><path d="M53.3,19.9l9.7,8.7c2,1.8,2.6,4.8,1.4,7.2l0,0c-1.9,3.7-6.9,6.4-9.8,3.4l-5-7.1c-2.3-2.4-2.3-6.1,0.1-8.5    L53.3,19.9z" fill="#FFD05B"/><path d="M111.4,72c0-0.5-0.5-0.9-1-0.9l-13.5,0.4c-0.5,0-0.9,0.5-0.9,1l0.1,4.4c0,0.5,0.5,0.9,1,0.9l13.5-0.4    c0.5,0,0.9-0.5,0.9-1L111.4,72z" fill="#FFD05B"/><path d="M18.6,72c0-0.5,0.5-0.9,1-0.9l13.5,0.4c0.5,0,0.9,0.5,0.9,1L33.9,77c0,0.5-0.5,0.9-1,0.9l-13.5-0.4    c-0.5,0-0.9-0.5-0.9-1L18.6,72z" fill="#FFD05B"/><circle cx="65" cy="48.3" fill="#324A5E" r="2.1"/><circle cx="65" cy="62.2" fill="#324A5E" r="2.1"/><circle cx="65" cy="76.1" fill="#324A5E" r="2.1"/><circle cx="65" cy="90.1" fill="#324A5E" r="2.1"/></g></g></svg>